<?xml version="1.0" standalone="no"?>
<!DOCTYPE svg PUBLIC "-//W3C//DTD SVG 20010904//EN"
 "http://www.w3.org/TR/2001/REC-SVG-20010904/DTD/svg10.dtd">
<svg version="1.0" xmlns="http://www.w3.org/2000/svg"
 width="182.000000pt" height="181.000000pt" viewBox="0 0 182.000000 181.000000"
 preserveAspectRatio="xMidYMid meet">

<g transform="translate(0.000000,181.000000) scale(0.100000,-0.100000)"
fill="#000000" stroke="none">
<path d="M775 1800 c-32 -6 -84 -17 -115 -25 -79 -23 -249 -109 -293 -149 -20
-18 -37 -31 -37 -28 0 20 -164 -168 -189 -216 -10 -19 -10 -27 1 -40 12 -15
11 -16 -4 -4 -15 12 -20 7 -46 -50 -52 -111 -91 -276 -92 -385 0 -121 56 -325
122 -443 55 -98 162 -225 181 -213 6 3 7 1 3 -5 -3 -6 23 -32 61 -61 300 -225
720 -240 1036 -38 76 49 219 186 213 204 -3 8 -2 11 3 8 13 -8 65 69 111 167
135 283 110 619 -65 882 -21 31 -42 53 -48 49 -6 -3 -7 -1 -3 5 9 15 -79 109
-159 169 -77 59 -221 128 -321 154 -91 23 -270 32 -359 19z m176 -535 c23 -30
46 -52 52 -48 5 3 7 2 4 -4 -8 -12 21 -55 33 -48 4 3 14 -3 21 -13 13 -15 12
-16 -3 -3 -26 20 -22 3 9 -33 l26 -31 -66 -3 -67 -3 0 -164 c0 -164 0 -165
-25 -181 -23 -15 -27 -15 -50 0 -25 16 -25 17 -25 181 l0 165 -70 0 -71 0 82
106 c82 106 102 148 35 74 -20 -22 -39 -40 -43 -40 -3 0 1 8 10 18 13 15 14
21 4 32 -10 12 -9 12 4 2 13 -10 20 -7 39 13 13 13 26 22 31 20 4 -3 10 -1 14
5 10 15 11 14 56 -45z m-211 -100 c-19 -19 -37 -35 -41 -35 -10 0 54 67 65 69
6 0 -5 -15 -24 -34z m-90 -90 c-13 -14 -27 -25 -32 -25 -9 0 42 49 51 50 3 0
-6 -11 -19 -25z m-60 -59 c0 -2 -8 -10 -17 -17 -16 -13 -17 -12 -4 4 13 16 21
21 21 13z m96 -46 l94 0 0 -40 0 -40 -82 -1 c-46 -1 -86 -1 -90 0 -5 0 -8 -69
-8 -154 l0 -154 310 -3 310 -3 0 158 0 157 -80 0 -80 0 0 45 0 45 135 0 135 0
0 -245 0 -245 -421 0 c-380 0 -421 2 -415 16 3 9 6 119 6 246 l0 231 46 -7
c26 -3 89 -6 140 -6z m334 -25 c0 -2 -6 -8 -13 -14 -10 -8 -14 -7 -14 2 0 8 6
14 14 14 7 0 13 -1 13 -2z"/>
</g>
</svg>
